<svg width="28" height="28" viewBox="0 0 28 28" fill="none" xmlns="http://www.w3.org/2000/svg">
<g clip-path="url(#clip0_0_42)">
<path d="M20.1399 16.5933C19.7158 17.5963 19.0525 18.4801 18.2079 19.1675C17.3633 19.8549 16.3631 20.3249 15.2949 20.5365C14.2267 20.7481 13.1229 20.6948 12.08 20.3812C11.0372 20.0676 10.087 19.5034 9.31262 18.7378C8.53822 17.9722 7.96315 17.0285 7.6377 15.9893C7.31225 14.9501 7.24632 13.847 7.44568 12.7764C7.64503 11.7058 8.10361 10.7004 8.78131 9.84801C9.45901 8.99561 10.3352 8.3222 11.3333 7.88666" stroke="#2E3032" stroke-linecap="round" stroke-linejoin="round"/>
<path d="M20.6667 14C20.6667 13.1245 20.4942 12.2576 20.1592 11.4488C19.8242 10.6399 19.3331 9.90499 18.714 9.28593C18.095 8.66688 17.3601 8.17581 16.5512 7.84078C15.7424 7.50575 14.8755 7.33331 14 7.33331V14H20.6667Z" stroke="#2E3032" stroke-linecap="round" stroke-linejoin="round"/>
</g>
<defs>
<clipPath id="clip0_0_42">
<rect width="16" height="16" fill="white" transform="translate(6 6)"/>
</clipPath>
</defs>
</svg>
