<svg width="28" height="28" viewBox="0 0 28 28" fill="none" xmlns="http://www.w3.org/2000/svg">
<path d="M15.9999 7.33331H11.9999C11.6317 7.33331 11.3333 7.63179 11.3333 7.99998V9.33331C11.3333 9.7015 11.6317 9.99998 11.9999 9.99998H15.9999C16.3681 9.99998 16.6666 9.7015 16.6666 9.33331V7.99998C16.6666 7.63179 16.3681 7.33331 15.9999 7.33331Z" stroke="#2E3032" stroke-linecap="round" stroke-linejoin="round"/>
<path d="M16.6667 8.66669H18.0001C18.3537 8.66669 18.6928 8.80716 18.9429 9.05721C19.1929 9.30726 19.3334 9.6464 19.3334 10V19.3334C19.3334 19.687 19.1929 20.0261 18.9429 20.2762C18.6928 20.5262 18.3537 20.6667 18.0001 20.6667H10.0001C9.64646 20.6667 9.30732 20.5262 9.05727 20.2762C8.80722 20.0261 8.66675 19.687 8.66675 19.3334V10C8.66675 9.6464 8.80722 9.30726 9.05727 9.05721C9.30732 8.80716 9.64646 8.66669 10.0001 8.66669H11.3334" stroke="#2E3032" stroke-linecap="round" stroke-linejoin="round"/>
<path d="M14 13.3333H16.6667" stroke="#2E3032" stroke-linecap="round" stroke-linejoin="round"/>
<path d="M14 16.6667H16.6667" stroke="#2E3032" stroke-linecap="round" stroke-linejoin="round"/>
<path d="M11.3333 13.3333H11.3399" stroke="#2E3032" stroke-linecap="round" stroke-linejoin="round"/>
<path d="M11.3333 16.6667H11.3399" stroke="#2E3032" stroke-linecap="round" stroke-linejoin="round"/>
</svg>
